:SAMPLES-PER-SECOND 30
:FULLY-SPECIFIED
:DEGREES
126
root  19.7536 38.4046 1.63784 -159.119 85.3607 -158.389
RightUpLeg  -24.6502 3.643 0.546922
RightLeg  -1.3092 6.77234 1.55421
RightFoot  4.25491 -0.81393 5.35127
RightToes  5.82075e-010 -1.59028e-015 9.93923e-017
Spine  2.49216 -6.72089 -10.2802
Spine1  10.4169 -9.68117 9.75328
HEad  -10.1293 6.85702 3.2716
LeftShoulder1  9.93923e-017 0 1.22299e-017
LeftArm  15.8415 -5.64815 -76.2644
LeftForeArm  -34.5715 -38.9816 23.7246
LeftHand  0.76895 5.75273 3.10306
RightShoulder  1.98785e-016 -4.96962e-017 1.55301e-017
RightArm  10.0065 -63.9843 55.5586
RightForeArm  -20.9856 13.1415 0.667294
RightHand  1.62106 -13.026 -7.01483
LeftUpLeg  8.7043 -2.83653 -1.45502
LeftLeg  14.9125 -10.5159 1.93614
LeftFoot  -18.2444 -0.0571665 -0.0754689
LeftToes  1.8463e-010 2.29954e-012 -3.51709e-011
127
root  21.4807 38.2 1.78898 -161.708 84.9734 -161.217
RightUpLeg  -25.1353 4.27972 0.309468
RightLeg  -4.57144 1.85312 1.52945
RightFoot  1.75837 -0.525201 3.99864
RightToes  5.82075e-010 -1.59028e-015 9.93923e-017
Spine  2.16684 -6.74897 -10.3979
Spine1  11.1288 -9.98524 10.5646
HEad  -11.3203 6.77618 3.11197
LeftShoulder1  9.93923e-017 0 1.22299e-017
LeftArm  14.5756 -5.05254 -76.9421
LeftForeArm  -33.7954 -39.2913 23.9412
LeftHand  0.751256 5.70525 3.86012
RightShoulder  1.98785e-016 -4.96962e-017 1.55301e-017
RightArm  5.21898 -63.9328 55.9909
RightForeArm  -18.7329 12.068 1.43319
RightHand  1.62556 -13.0884 -6.92881
LeftUpLeg  11.2796 -2.96576 -0.637311
LeftLeg  14.7215 -11.3589 1.38894
LeftFoot  -17.3028 -0.108485 -1.69376
LeftToes  1.8463e-010 2.29954e-012 -3.51709e-011
128
root  23.3094 38.0033 1.93747 -159.215 84.4783 -159.256
RightUpLeg  -26.4562 4.27662 0.920948
RightLeg  -1.26011 -1.97535 1.08453
RightFoot  1.71656 -0.308499 2.37661
RightToes  5.82075e-010 -1.59028e-015 9.93923e-017
Spine  1.51462 -6.81391 -9.47616
Spine1  11.9209 -10.2761 10.958
HEad  -12.6708 6.9355 2.85722
LeftShoulder1  9.93923e-017 0 1.22299e-017
LeftArm  13.1099 -2.63087 -78.0878
LeftForeArm  -32.9465 -39.1649 23.9294
LeftHand  0.73276 5.62666 4.20624
RightShoulder  1.98785e-016 -4.96962e-017 1.55301e-017
RightArm  2.33803 -63.333 58.0664
RightForeArm  -17.691 11.7101 1.67779
RightHand  1.567 -12.9197 -6.38082
LeftUpLeg  13.4171 -2.91292 1.04055
LeftLeg  14.9721 -12.5484 0.293135
LeftFoot  -15.5904 -0.113568 -3.32731
LeftToes  1.8463e-010 2.29954e-012 -3.51709e-011
129
root  25.3002 37.7676 2.08038 -150.875 83.4904 -151.206
RightUpLeg  -27.643 4.55457 2.60051
RightLeg  5.26894 -3.5887 -0.423629
RightFoot  4.67412 -0.162135 1.05696
RightToes  5.82075e-010 -1.59028e-015 9.93923e-017
Spine  0.794106 -6.91132 -6.96525
Spine1  12.4152 -10.3668 10.7273
HEad  -14.0319 7.06759 2.25532
LeftShoulder1  9.93923e-017 0 1.22299e-017
LeftArm  12.7131 1.26835 -79.7949
LeftForeArm  -32.3228 -37.8769 23.2924
LeftHand  0.705994 5.49314 4.40605
RightShoulder  1.98785e-016 -4.96962e-017 1.55301e-017
RightArm  0.584378 -62.4566 61.2994
RightForeArm  -17.8095 11.9657 1.48318
RightHand  1.5135 -12.7619 -5.86602
LeftUpLeg  15.0943 -2.58967 4.31413
LeftLeg  16.6577 -14.063 -1.50827
LeftFoot  -12.8052 -0.00998973 -6.31678
LeftToes  1.8463e-010 2.29954e-012 -3.51709e-011
130
root  27.3335 37.569 2.22836 -140.921 82.1961 -140.851
RightUpLeg  -27.8595 4.76758 5.351
RightLeg  11.7829 -2.78783 -2.24087
RightFoot  7.23459 0.10221 -0.533841
RightToes  5.82075e-010 -1.59028e-015 9.93923e-017
Spine  0.774116 -6.69025 -3.47425
Spine1  12.3993 -9.99312 10.2158
HEad  -15.0773 6.75446 1.6299
LeftShoulder1  9.93923e-017 0 1.22299e-017
LeftArm  14.8334 6.00762 -82.2303
LeftForeArm  -32.6991 -34.3393 21.5212
LeftHand  0.648522 5.21962 4.86259
RightShoulder  1.98785e-016 -4.96962e-017 1.55301e-017
RightArm  -2.10938 -61.0753 65.4625
RightForeArm  -17.7145 12.0131 1.52426
RightHand  1.49741 -12.7264 -5.67558
LeftUpLeg  15.7826 -1.72839 8.4155
LeftLeg  20.832 -15.5465 -2.95726
LeftFoot  -6.43271 0.585677 -9.58621
LeftToes  1.8463e-010 2.29954e-012 -3.51709e-011
131
root  29.2133 37.3878 2.38639 -133.378 80.9952 -132.395
RightUpLeg  -27.4383 4.63875 8.15872
RightLeg  17.9398 -1.40346 -3.68418
RightFoot  6.24841 0.399637 -2.34383
RightToes  5.82075e-010 -1.59028e-015 9.93923e-017
Spine  1.76792 -6.19678 -0.00126092
Spine1  12.0666 -9.12737 9.82571
HEad  -15.6805 5.93581 1.67925
LeftShoulder1  9.93923e-017 0 1.22299e-017
LeftArm  23.0887 10.8402 -85.1961
LeftForeArm  -38.8898 -28.3271 19.409
LeftHand  0.55089 4.75517 5.40226
RightShoulder  1.98785e-016 -4.96962e-017 1.55301e-017
RightArm  -7.25862 -58.2851 70.3864
RightForeArm  -15.4791 10.9075 2.58827
RightHand  1.47959 -12.7086 -5.40767
LeftUpLeg  14.1109 -3.02634 10.7585
LeftLeg  28.7607 -14.2351 -2.68308
LeftFoot  4.70015 1.67735 -10.3686
LeftToes  1.8463e-010 2.29954e-012 -3.51709e-011
132
root  30.8834 37.1799 2.53683 -129.607 80.0736 -127.758
RightUpLeg  -26.7097 3.79012 10.3262
RightLeg  23.4764 -0.15941 -4.54741
RightFoot  2.56481 0.502801 -3.66439
RightToes  5.82075e-010 -1.59028e-015 9.93923e-017
Spine  2.86193 -5.73177 2.94916
Spine1  11.9043 -8.00172 9.30257
HEad  -16.0283 4.84758 2.48477
LeftShoulder1  9.93923e-017 0 1.22299e-017
LeftArm  17.4151 14.5917 -86.9549
LeftForeArm  -30.174 -22.2082 7.96372
LeftHand  0.495285 4.382 4.87016
RightShoulder  1.98785e-016 -4.96962e-017 1.55301e-017
RightArm  -12.039 -53.5465 75.4371
RightForeArm  -12.7863 9.25261 4.09051
RightHand  1.43653 -12.6029 -4.90498
LeftUpLeg  9.95029 -4.66634 11.9626
LeftLeg  39.0642 -12.1663 -1.26387
LeftFoot  16.4802 2.43098 -8.96249
LeftToes  1.8463e-010 2.29954e-012 -3.51709e-011
133
root  32.4983 37.1459 2.65202 -128.217 79.3273 -125.824
RightUpLeg  -24.9082 2.65848 11.9184
RightLeg  26.5715 0.761433 -4.80352
RightFoot  -1.13622 0.451549 -4.30291
RightToes  5.82075e-010 -1.59028e-015 9.93923e-017
Spine  2.9945 -5.28693 5.55199
Spine1  12.311 -6.85199 8.35988
HEad  -16.2656 3.67223 3.38005
LeftShoulder1  9.93923e-017 0 1.22299e-017
LeftArm  2.06705 17.7521 -87.1237
LeftForeArm  -12.5279 -11.3396 -4.28975
LeftHand  0.575843 4.53061 2.55231
RightShoulder  1.98785e-016 -4.96962e-017 1.55301e-017
RightArm  -11.5698 -47.4181 79.805
RightForeArm  -13.532 9.15389 4.75079
RightHand  1.42262 -12.4822 -4.95274
LeftUpLeg  4.33264 -5.88834 12.6405
LeftLeg  48.7136 -9.94461 1.83094
LeftFoot  22.5579 2.49347 -7.47725
LeftToes  1.8463e-010 2.29954e-012 -3.51709e-011
134
root  34.2361 37.4258 2.7492 -128.153 79.1733 -125.342
RightUpLeg  -21.4978 2.43181 12.6952
RightLeg  26.7637 0.690729 -4.8943
RightFoot  -3.94783 0.359147 -4.48222
RightToes  5.82075e-010 -1.59028e-015 9.93923e-017
Spine  2.13773 -4.58853 7.24457
Spine1  13.0389 -5.65678 7.14291
HEad  -16.3696 2.46224 3.88232
LeftShoulder1  9.93923e-017 0 1.22299e-017
LeftArm  -8.61777 21.7 -86.4911
LeftForeArm  1.92547 -5.80757 -6.7553
LeftHand  0.745463 5.29919 -0.225579
RightShoulder  1.98785e-016 -4.96962e-017 1.55301e-017
RightArm  -4.14561 -41.0282 83.1599
RightForeArm  -19.7041 11.8319 3.27183
RightHand  1.47722 -12.4277 -6.10451
LeftUpLeg  -1.50121 -6.68604 12.4583
LeftLeg  55.7858 -8.39061 5.53157
LeftFoot  21.5429 1.7062 -5.19856
LeftToes  1.8463e-010 2.29954e-012 -3.51709e-011
135
root  36.0516 37.8335 2.84169 -128.672 80.0073 -125.412
RightUpLeg  -17.1747 3.61196 12.5577
RightLeg  25.5307 -0.382604 -5.16381
RightFoot  -6.2483 0.257323 -4.28738
RightToes  5.82075e-010 -1.59028e-015 9.93923e-017
Spine  1.19597 -3.58629 7.79401
Spine1  13.5159 -4.25152 5.86637
HEad  -16.3853 1.26598 4.15968
LeftShoulder1  9.93923e-017 0 1.22299e-017
LeftArm  -17.0897 27.2583 -84.9354
LeftForeArm  14.8729 -3.38467 -5.67519
LeftHand  0.90092 6.31205 -1.98629
RightShoulder  1.98785e-016 -4.96962e-017 1.55301e-017
RightArm  7.78997 -35.1791 85.6005
RightForeArm  -30.2797 15.9957 -1.439
RightHand  1.55299 -12.4218 -7.51381
LeftUpLeg  -6.84781 -6.87385 11.2273
LeftLeg  59.7393 -8.01381 7.55152
LeftFoot  17.2044 0.893031 -3.04538
LeftToes  1.8463e-010 2.29954e-012 -3.51709e-011
136
root  37.8402 38.1676 2.91648 -128.724 81.5351 -125.104
RightUpLeg  -12.8619 5.49475 11.9517
RightLeg  24.1279 -1.50119 -5.34959
RightFoot  -8.17209 0.174333 -4.03925
RightToes  5.82075e-010 -1.59028e-015 9.93923e-017
Spine  0.719768 -2.44677 8.10507
Spine1  13.4051 -2.55566 4.22165
HEad  -16.4467 0.126581 4.47949
LeftShoulder1  9.93923e-017 0 1.22299e-017
LeftArm  -17.7935 33.8754 -82.3977
LeftForeArm  17.7836 -2.79472 -5.31182
LeftHand  0.982404 6.95541 -3.19227
RightShoulder  1.98785e-016 -4.96962e-017 1.55301e-017
RightArm  21.1511 -30.1144 87.262
RightForeArm  -43.5238 19.1609 -9.47124
RightHand  1.58596 -12.4265 -8.10003
LeftUpLeg  -11.6735 -6.52613 9.35923
LeftLeg  60.74 -8.39097 7.19164
LeftFoot  13.7883 0.632628 -2.45173
LeftToes  1.8463e-010 2.29954e-012 -3.51709e-011
137
root  39.6097 38.429 2.96079 -126.77 83.1563 -123.012
RightUpLeg  -8.70658 6.2638 11.464
RightLeg  22.3575 -1.2485 -5.11603
RightFoot  -9.68813 0.124434 -4.18774
RightToes  5.82075e-010 -1.59028e-015 9.93923e-017
Spine  0.465675 -1.27081 9.07625
Spine1  12.8629 -0.667531 1.83457
HEad  -16.6166 -0.974068 4.7383
LeftShoulder1  9.93923e-017 0 1.22299e-017
LeftArm  -11.0476 40.4284 -78.5466
LeftForeArm  10.7483 -3.69921 -5.98914
LeftHand  0.99135 7.02188 -4.73492
RightShoulder  1.98785e-016 -4.96962e-017 1.55301e-017
RightArm  30.7626 -25.6132 87.8977
RightForeArm  -53.9901 20.4237 -17.9948
RightHand  1.56979 -12.3407 -8.06565
LeftUpLeg  -16.1464 -5.82336 7.512
LeftLeg  59.1027 -8.88308 5.62073
LeftFoot  11.5416 0.647688 -2.77294
LeftToes  1.8463e-010 2.29954e-012 -3.51709e-011
138
root  41.3889 38.6471 2.97499 -120.839 84.5363 -117.052
RightUpLeg  -4.49711 5.19291 11.0182
RightLeg  19.9751 0.57328 -4.36702
RightFoot  -11.0099 0.0825637 -4.55725
RightToes  5.82075e-010 -1.59028e-015 9.93923e-017
Spine  0.23588 -0.058273 10.6003
Spine1  12.2748 1.20989 -0.934828
HEad  -16.9546 -2.04923 4.72763
LeftShoulder1  9.93923e-017 0 1.22299e-017
LeftArm  -1.56367 46.1895 -73.4521
LeftForeArm  0.400002 -4.84109 -6.81553
LeftHand  0.97678 6.83747 -6.0951
RightShoulder  1.98785e-016 -4.96962e-017 1.55301e-017
RightArm  28.7786 -21.0802 87.0778
RightForeArm  -52.172 23.1036 -21.7739
RightHand  1.54615 -12.1575 -8.19863
LeftUpLeg  -20.1178 -4.81729 6.08253
LeftLeg  54.9976 -9.21582 3.91287
LeftFoot  8.94164 0.686593 -3.34084
LeftToes  1.8463e-010 2.29954e-012 -3.51709e-011
